<?xml version="1.0" encoding="UTF-8" standalone="no"?>
<!-- Generator: Adobe Illustrator 16.0.0, SVG Export Plug-In . SVG Version: 6.00 Build 0)  -->

<svg
   xmlns:dc="http://purl.org/dc/elements/1.1/"
   xmlns:cc="http://creativecommons.org/ns#"
   xmlns:rdf="http://www.w3.org/1999/02/22-rdf-syntax-ns#"
   xmlns:svg="http://www.w3.org/2000/svg"
   xmlns="http://www.w3.org/2000/svg"
   xmlns:sodipodi="http://sodipodi.sourceforge.net/DTD/sodipodi-0.dtd"
   xmlns:inkscape="http://www.inkscape.org/namespaces/inkscape"
   version="1.1"
   id="Layer_1"
   x="0px"
   y="0px"
   width="683.03058"
   height="188.95293"
   viewBox="0 0 683.03056 188.95293"
   enable-background="new 0 0 1000.283 373.806"
   xml:space="preserve"
   sodipodi:docname="Cartoon Network 1992 logo.svg"
   inkscape:version="0.92.4 (5da689c313, 2019-01-14)"><metadata
     id="metadata37175"><rdf:RDF><cc:Work
         rdf:about=""><dc:format>image/svg+xml</dc:format><dc:type
           rdf:resource="http://purl.org/dc/dcmitype/StillImage" /><dc:title /></cc:Work></rdf:RDF></metadata><defs
     id="defs37173" /><sodipodi:namedview
     pagecolor="#ffffff"
     bordercolor="#666666"
     borderopacity="1"
     objecttolerance="10"
     gridtolerance="10"
     guidetolerance="10"
     inkscape:pageopacity="0"
     inkscape:pageshadow="2"
     inkscape:window-width="1082"
     inkscape:window-height="655"
     id="namedview37171"
     showgrid="false"
     inkscape:zoom="0.80304602"
     inkscape:cx="322.90555"
     inkscape:cy="103.77711"
     inkscape:window-x="247"
     inkscape:window-y="207"
     inkscape:window-maximized="0"
     inkscape:current-layer="g37168" /><g
     id="g37168"
     transform="translate(-542.77477,-221.67256)"><rect
       x="641.15955"
       y="222.66016"
       width="97.352783"
       height="93.492538"
       id="rect37038"
       style="fill:#ffffff;stroke-width:3.69754958" /><rect
       x="835.64331"
       y="222.66016"
       width="97.341698"
       height="93.492538"
       id="rect37042"
       style="fill:#ffffff;stroke-width:3.69754958" /><rect
       x="1030.2269"
       y="222.66016"
       width="97.411949"
       height="93.492538"
       id="rect37046"
       style="fill:#ffffff;stroke-width:3.69754958" /><rect
       x="543.92871"
       y="222.66016"
       width="97.234467"
       height="93.492538"
       id="rect37050"
       style="stroke-width:3.69754958" /><rect
       x="738.40143"
       y="222.66016"
       width="97.241852"
       height="93.492538"
       id="rect37054"
       style="stroke-width:3.69754958" /><rect
       x="932.98499"
       y="222.66016"
       width="97.241852"
       height="93.492538"
       id="rect37058"
       style="stroke-width:3.69754958" /><rect
       x="1127.6387"
       y="222.66016"
       width="97.238167"
       height="93.492538"
       id="rect37062"
       style="stroke-width:3.69754958" /><path
       d="m 1080.4913,255.33173 c -18.3214,0 -17.4154,26.77766 0.3402,26.55211 17.3045,-0.11833 17.3045,-26.67042 -0.3402,-26.55211 m -1.0206,47.31385 c -48.9001,-0.45849 -48.1087,-67.96097 1.2461,-67.61709 49.9835,0.44371 47.765,68.07189 -1.2461,67.61709"
       id="path37066"
       inkscape:connector-curvature="0"
       style="stroke-width:3.69754958" /><polygon
       points="893.128,294.731 893.128,299.701 887.972,299.302 887.972,312.528 881.375,312.528 881.375,299.395 876.159,299.824 876.159,294.731 "
       id="polygon37068"
       transform="matrix(3.6975496,0,0,3.6975496,-2385.9024,-852.8276)" /><path
       d="m 682.63496,280.86702 11.85434,0.32908 -6.0122,-12.02444 z m -34.49814,21.89319 41.59004,-67.17339 41.92282,67.05876 h -25.97529 l -4.66261,-8.16419 h -24.50735 l -4.41858,8.27882 z"
       id="path37070"
       inkscape:connector-curvature="0"
       style="stroke-width:3.69754958" /><polygon
       points="972.543,294.33 972.818,312.805 960.437,305.532 960.437,312.128 954.025,312.128 954.131,294.24 966.436,301.573 966.635,294.33 "
       id="polygon37072"
       style="fill:#ffffff"
       transform="matrix(3.6975496,0,0,3.6975496,-2385.9024,-852.8276)" /><path
       d="m 983.1422,255.33173 c -18.26959,0 -17.4746,26.77766 0.45114,26.55211 17.30446,-0.11833 17.30446,-26.67042 -0.45114,-26.55211 m -0.96503,47.31385 c -49.02213,-0.45849 -48.21976,-67.96097 1.30892,-67.61709 49.80231,0.44371 47.76501,68.07189 -1.30892,67.61709"
       id="path37074"
       inkscape:connector-curvature="0"
       style="fill:#ffffff;stroke-width:3.69754958" /><path
       d="m 785.09036,251.81537 h -7.20282 v 14.86784 h 6.40785 1.98928 c 2.66224,0 7.65393,-2.84711 7.543,-7.72048 -0.11462,-4.31874 -3.4609,-7.15106 -6.41154,-7.15106 h -2.32577 z m 23.83071,21.56041 20.36241,28.71147 h -29.78376 l -12.42377,-18.50254 h -9.18471 v 18.50254 H 753.4948 l -0.22925,-65.92731 h 35.34488 4.99909 c 12.86747,0 24.61828,6.3487 25.18031,19.29012 0.34018,7.82771 -3.0061,13.7216 -9.86876,17.92572"
       id="path37076"
       inkscape:connector-curvature="0"
       style="fill:#ffffff;stroke-width:3.69754958" /><path
       d="m 579.95031,269.74108 c 0.22925,14.86046 20.25517,16.11392 26.03814,5.33187 l 21.50126,5.45019 c -4.42227,12.02442 -15.59997,24.16349 -36.8165,22.69186 -47.9979,-3.51636 -43.56823,-64.55922 -3.29083,-67.86113 13.95456,-1.01312 31.94314,2.15938 39.76346,20.77284 l -21.04646,7.26568 c -6.63341,-13.62177 -26.37832,-8.28991 -26.14907,6.34869"
       id="path37078"
       inkscape:connector-curvature="0"
       style="fill:#ffffff;stroke-width:3.69754958" /><rect
       x="641.15955"
       y="316.15271"
       width="97.241852"
       height="93.485153"
       id="rect37080"
       style="stroke-width:3.69754958" /><rect
       x="835.75409"
       y="316.15271"
       width="97.230759"
       height="93.485153"
       id="rect37084"
       style="stroke-width:3.69754958" /><rect
       x="1030.2269"
       y="316.15271"
       width="97.411949"
       height="93.485153"
       id="rect37088"
       style="stroke-width:3.69754958" /><rect
       x="543.76239"
       y="316.15271"
       width="97.400841"
       height="93.485153"
       id="rect37092"
       style="fill:#ffffff;stroke-width:3.69754958" /><rect
       x="738.51605"
       y="316.15271"
       width="97.241852"
       height="93.485153"
       id="rect37096"
       style="fill:#ffffff;stroke-width:3.69754958" /><rect
       x="933.10321"
       y="316.15271"
       width="97.241852"
       height="93.485153"
       id="rect37100"
       style="fill:#ffffff;stroke-width:3.69754958" /><rect
       x="1127.7458"
       y="316.15271"
       width="97.238167"
       height="93.485153"
       id="rect37104"
       style="fill:#ffffff;stroke-width:3.69754958" /><polygon
       points="824.193,320.014 838.493,320.014 838.493,324.097 830.728,324.097 830.728,326.552 838.168,326.552 838.168,331.092 830.728,331.092 830.728,333.579 838.553,333.579 838.553,337.813 824.224,337.813 "
       id="polygon37108"
       style="fill:#ffffff"
       transform="matrix(3.6975496,0,0,3.6975496,-2385.9024,-852.8276)" /><polygon
       points="881.451,326.858 884.997,320.292 888.6,326.765 890.121,320.292 896.564,320.261 889.277,338.764 884.842,331.831 880.531,338.733 872.767,320.323 879.902,320.323 "
       id="polygon37110"
       style="fill:#ffffff"
       transform="matrix(3.6975496,0,0,3.6975496,-2385.9024,-852.8276)" /><path
       d="m 1077.1487,345.19328 h -7.2065 v 14.97138 h 6.4116 2.1001 c 2.544,0 7.5357,-2.83232 7.5357,-7.70939 -0.3365,-4.31504 -3.6236,-7.26199 -6.5225,-7.26199 z m 23.8233,21.67874 20.3069,28.58205 h -29.7283 l -12.4238,-18.37682 h -9.1846 v 18.37682 h -24.4001 l -0.2256,-65.91621 h 35.3486 4.9917 c 12.8748,0 24.6183,6.34869 25.1876,19.29012 0.3403,7.93493 -3.0097,13.83992 -9.8724,18.04404"
       id="path37112"
       inkscape:connector-curvature="0"
       style="fill:#ffffff;stroke-width:3.69754958" /><polygon
       points="815.247,319.894 815.539,338.335 803.157,331.061 803.157,337.627 796.744,337.627 796.834,319.77 809.155,327.074 809.309,319.894 "
       id="polygon37114"
       transform="matrix(3.6975496,0,0,3.6975496,-2385.9024,-852.8276)" /><polygon
       points="866.431,320.23 866.431,325.171 861.277,324.77 861.277,337.999 854.678,337.999 854.678,324.863 849.461,325.323 849.461,320.23 "
       id="polygon37116"
       transform="matrix(3.6975496,0,0,3.6975496,-2385.9024,-852.8276)" /><path
       d="m 981.78519,350.18497 c -18.32874,0.11093 -17.42283,26.89228 0.3365,26.66673 17.47096,-0.11462 17.3008,-26.66673 -0.3365,-26.66673 m -1.03158,47.31385 c -48.90011,-0.34387 -48.10513,-67.96096 1.25348,-67.50246 49.97971,0.4437 47.87591,68.07189 -1.25348,67.50246"
       id="path37118"
       inkscape:connector-curvature="0"
       style="stroke-width:3.69754958" /><polygon
       points="954.713,319.832 960.99,319.832 960.99,327.043 965.808,319.832 972.65,319.832 967.25,327.995 973.939,337.597 966.083,337.597 960.99,330.11 960.99,337.597 954.713,337.597 "
       id="polygon37120"
       transform="matrix(3.6975496,0,0,3.6975496,-2385.9024,-852.8276)" /><rect
       x="543.76239"
       y="222.66017"
       width="681.05536"
       height="186.97769"
       id="rect37122"
       style="fill:none;stroke:#000000;stroke-width:1.97523105" /></g></svg>